#!OML:ASF E:\Steps\Project 1\Capture day 1\Session 2\Subject.ASF
:FULLY-SPECIFIED
:DEGREES
385
root 8.71118 16.1311 10.6479 -160.663 6.14125 177.038
lowerback -23.1768 -1.17031 -7.31125
upperback 0.801471 0.935998 -1.50404
thorax 13.9481 0.0666446 2.81643
lowerneck -2.19264 -2.46285 -1.12643
upperneck 19.063 -2.60186 3.06464
head 6.18272 -0.638575 1.05823
rclavicle 1.75924e-014 3.65764e-014
rhumerus -35.1788 -13.7259 -77.6139
rradius 37.9451
rwrist -0.763892
rhand -6.11588 -54.7908
rfingers 7.12502
rthumb 19.721 -83.8104
lclavicle 1.75924e-014 3.65764e-014
lhumerus -32.6289 15.9022 72.5671
lradius 14.2857
lwrist -14.4009
lhand -19.5078 -11.4349
lfingers 7.12502
lthumb 6.81493 18.4354
rfemur -31.9656 -4.42928 19.4711
rtibia 63.2964
rfoot -3.17389 0.0386318
rtoes -42.9038
lfemur -31.672 -5.36553 -25.1672
ltibia 16.2435
lfoot -3.66024 1.30857
ltoes -30.1214
386
root 8.7085 16.1355 10.5448 -160.847 6.16939 176.922
lowerback -22.8244 -1.2967 -7.4911
upperback 0.822588 0.776285 -1.48035
thorax 13.7863 -0.0166232 2.88802
lowerneck -2.07682 -2.32678 -1.38118
upperneck 18.8582 -2.4603 3.38683
head 6.10138 -0.57411 1.21097
rclavicle -3.08116e-015 2.34566e-014
rhumerus -35.5191 -13.678 -77.4341
rradius 37.717
rwrist -0.514882
rhand -6.16858 -54.8091
rfingers 7.12502
rthumb 19.6703 -83.8339
lclavicle -3.08116e-015 2.34566e-014
lhumerus -32.441 14.5649 73.4763
lradius 14.9827
lwrist -13.0427
lhand -20.0303 -11.2524
lfingers 7.12502
lthumb 6.31054 18.6336
rfemur -33.2652 -4.44476 19.3584
rtibia 65.1102
rfoot -3.76683 -2.01544
rtoes -42.4503
lfemur -30.8033 -5.34232 -25.4261
ltibia 15.7902
lfoot -4.00792 1.18541
ltoes -29.383
387
root 8.70554 16.1439 10.4489 -160.945 6.02492 176.835
lowerback -22.5696 -1.57447 -7.66993
upperback 0.936566 0.397318 -1.31133
thorax 13.8134 -0.220789 3.05059
lowerneck -2.26189 -2.12916 -1.83334
upperneck 18.7312 -2.21286 3.5501
head 6.09367 -0.488573 1.34997
rclavicle -2.76311e-014 4.77083e-015
rhumerus -35.4982 -13.3396 -77.2035
rradius 37.3638
rwrist -0.256296
rhand -6.19548 -57.4345
rfingers 7.12502
rthumb 19.6444 -86.4619
lclavicle -2.76311e-014 4.77083e-015
lhumerus -32.0526 13.8772 74.2692
lradius 15.4594
lwrist -12.0865
lhand -20.1896 -11.7376
lfingers 7.12502
lthumb 6.15676 18.1529
rfemur -34.6055 -4.59659 19.3193
rtibia 66.6529
rfoot -4.51576 -3.73179
rtoes -43.4257
lfemur -30.0959 -5.43309 -25.6267
ltibia 15.4037
lfoot -4.18238 1.0252
ltoes -29.1042
388
root 8.70145 16.1553 10.3564 -161.057 5.86154 176.793
lowerback -22.8385 -1.79627 -7.5914
upperback 1.36255 0.108371 -1.31426
thorax 14.507 -0.390404 2.89536
lowerneck -2.46034 -1.90662 -1.82315
upperneck 18.4221 -1.94867 3.49219
head 6.02184 -0.388865 1.34036
rclavicle 4.37326e-015 -4.77083e-015
rhumerus -34.8958 -13.5408 -77.2581
rradius 36.7002
rwrist -0.0281304
rhand -6.50779 -56.3994
rfingers 7.12502
rthumb 19.3442 -85.4573
lclavicle 4.37326e-015 -4.77083e-015
lhumerus -30.9877 13.402 74.7666
lradius 15.707
lwrist -11.6093
lhand -20.2221 -11.5063
lfingers 7.12502
lthumb 6.12542 18.3852
rfemur -35.8619 -4.6523 19.2793
rtibia 67.8176
rfoot -5.29517 -5.03435
rtoes -44.0139
lfemur -29.4438 -5.48149 -25.8105
ltibia 15.1036
lfoot -4.21241 0.914268
ltoes -30.1169
389
root 8.69868 16.1672 10.2622 -161.112 5.75355 176.931
lowerback -22.5002 -1.82747 -7.42233
upperback 1.32149 -0.0168864 -1.3212
thorax 14.2733 -0.425841 2.74917
lowerneck -2.34608 -1.89301 -1.42857
upperneck 18.5354 -1.88426 3.11964
head 6.02913 -0.349974 1.16186
rclavicle -2.88238e-015 -5.96354e-015
rhumerus -35.287 -14.0968 -76.9941
rradius 36.1766
rwrist 0.0404227
rhand -7.0181 -54.1762
rfingers 7.12502
rthumb 18.8534 -83.2825
lclavicle -2.88238e-015 -5.96354e-015
lhumerus -30.6113 12.4248 75.1754
lradius 16.0487
lwrist -11.2741
lhand -20.3339 -10.9219
lfingers 7.12502
lthumb 6.01744 18.9727
rfemur -37.1369 -4.42515 19.3916
rtibia 68.7699
rfoot -6.20332 -5.89247
rtoes -43.9002
lfemur -28.7909 -5.53983 -25.7415
ltibia 14.7313
lfoot -4.28199 0.975578
ltoes -29.9504
390
root 8.69908 16.1808 10.1722 -161.077 5.62545 177.223
lowerback -22.4616 -1.8106 -7.08478
upperback 1.48154 -0.104322 -1.28286
thorax 14.4459 -0.457448 2.56707
lowerneck -2.69318 -1.97868 -1.38095
upperneck 18.5799 -2.02765 3.09993
head 6.10607 -0.424392 1.13663
rclavicle 1.44119e-014 0
rhumerus -35.346 -14.7651 -76.7937
rradius 35.7943
rwrist 0.261919
rhand -7.35046 -53.2197
rfingers 7.12502
rthumb 18.5337 -82.3567
lclavicle 1.44119e-014 0
lhumerus -29.7689 11.9595 75.5075
lradius 16.2424
lwrist -11.3926
lhand -20.5953 -11.3941
lfingers 7.12502
lthumb 5.76506 18.5075
rfemur -38.4072 -4.00301 19.6738
rtibia 69.4308
rfoot -7.17458 -6.43741
rtoes -44.0976
lfemur -28.2993 -5.51562 -25.4585
ltibia 14.4417
lfoot -4.42907 1.03207
ltoes -29.7703
